HIERARCHY
ROOT joint_0
{
	OFFSET 0.000000 0.000000 0.000000
	CHANNELS 6 Xposition Yposition Zposition Zrotation Yrotation Xrotation 
	JOINT joint_1
	{
		OFFSET 11.612000 -0.419000 106.198000
		CHANNELS 3 Zrotation Yrotation Xrotation
		JOINT joint_2
		{
			OFFSET -1.708000 -1.022000 97.564090
			CHANNELS 3 Zrotation Yrotation Xrotation
			JOINT joint_3
			{
				OFFSET -4.121000 -1.538000 97.375000
				CHANNELS 3 Zrotation Yrotation Xrotation
				JOINT joint_4
				{
					OFFSET 5.442000 -2.123000 132.795900
					CHANNELS 3 Zrotation Yrotation Xrotation
					JOINT joint_5
					{
						OFFSET 21.935000 0.195000 82.975100
						CHANNELS 3 Zrotation Yrotation Xrotation
						End Site
						{
							OFFSET 0.000000 0.000000 0.000000
						}
					}
				}
				JOINT joint_6
				{
					OFFSET 4.262000 -30.048000 73.899900
					CHANNELS 3 Zrotation Yrotation Xrotation
					JOINT joint_7
					{
						OFFSET 9.731000 -136.810010 -21.963010
						CHANNELS 3 Zrotation Yrotation Xrotation
						JOINT joint_8
						{
							OFFSET 33.360000 -35.709000 -267.597900
							CHANNELS 3 Zrotation Yrotation Xrotation
							JOINT joint_9
							{
								OFFSET 36.156000 -29.759000 -240.558040
								CHANNELS 3 Zrotation Yrotation Xrotation
								End Site
								{
									OFFSET 0.000000 0.000000 0.000000
								}
							}
						}
					}
				}
				JOINT joint_10
				{
					OFFSET 2.027000 27.734000 74.914920
					CHANNELS 3 Zrotation Yrotation Xrotation
					JOINT joint_11
					{
						OFFSET -5.183000 136.784000 -23.604980
						CHANNELS 3 Zrotation Yrotation Xrotation
						JOINT joint_12
						{
							OFFSET 29.806000 37.229000 -267.809940
							CHANNELS 3 Zrotation Yrotation Xrotation
							JOINT joint_13
							{
								OFFSET 36.890000 46.524990 -237.772030
								CHANNELS 3 Zrotation Yrotation Xrotation
								End Site
								{
									OFFSET 0.000000 0.000000 0.000000
								}
							}
						}
					}
				}
			}
		}
	}
	JOINT joint_14
	{
		OFFSET -7.290000 -102.873990 -124.314940
		CHANNELS 3 Zrotation Yrotation Xrotation
		JOINT joint_15
		{
			OFFSET -15.466000 -19.909010 -438.533020
			CHANNELS 3 Zrotation Yrotation Xrotation
			JOINT joint_16
			{
				OFFSET -26.899000 -18.922000 -464.797000
				CHANNELS 3 Zrotation Yrotation Xrotation
				JOINT joint_17
				{
					OFFSET 179.329000 -12.011000 -84.174000
					CHANNELS 3 Zrotation Yrotation Xrotation
					End Site
					{
						OFFSET 0.000000 0.000000 0.000000
					}
				}
			}
		}
	}
	JOINT joint_18
	{
		OFFSET -6.225000 101.546000 -125.479980
		CHANNELS 3 Zrotation Yrotation Xrotation
		JOINT joint_19
		{
			OFFSET -13.973000 7.996000 -438.963010
			CHANNELS 3 Zrotation Yrotation Xrotation
			JOINT joint_20
			{
				OFFSET -44.294000 5.716000 -463.813970
				CHANNELS 3 Zrotation Yrotation Xrotation
				JOINT joint_21
				{
					OFFSET 178.505000 -4.689000 -85.139000
					CHANNELS 3 Zrotation Yrotation Xrotation
					End Site
					{
						OFFSET 0.000000 0.000000 0.000000
					}
				}
			}
		}
	}
}
MOTION
Frames: 16
Frame Time: 0.016667
-3202.123047 913.107422 1106.292969 1.955131 1.631948 -1.158332 -1.743799 15.614753 1.327366 -0.834154 -2.664922 -0.449271 -0.536677 2.356326 0.140760 -0.541458 -9.237189 2.250278 0.000000 0.000000 0.000000 -0.505476 -25.603254 3.492397 -3.877178 -16.155821 0.801125 11.096115 -67.134900 17.397015 0.000000 0.000000 0.000000 0.244799 -21.846291 3.152122 -0.204431 -15.639382 0.143949 -14.338918 -67.256480 -4.513295 0.000000 0.000000 0.000000 -1.271587 5.413592 0.299435 -1.235826 11.066248 -1.301252 -0.453593 -12.294825 -1.021353 0.000000 0.000000 0.000000 4.833282 -22.704281 1.020600 5.796756 26.952243 2.159274 8.104087 -4.882282 3.461088 0.000000 0.000000 0.000000 
-3197.520752 917.749939 1108.109985 1.706057 1.925048 -1.343569 -1.651961 15.719540 1.286896 -0.883491 -2.702697 -0.406047 -0.605515 2.396778 0.112119 -0.533339 -9.170446 2.211861 0.000000 0.000000 0.000000 -0.597367 -25.688475 3.643448 -3.557133 -16.253658 1.291558 11.301132 -67.101582 16.720969 0.000000 0.000000 0.000000 0.205813 -22.050805 3.152926 -0.199319 -15.893207 -0.144324 -14.363900 -66.718793 -4.954611 0.000000 0.000000 0.000000 -1.001803 4.773134 0.022524 -1.098775 11.925333 -1.007671 -0.291740 -11.503277 -0.897305 0.000000 0.000000 0.000000 4.942536 -22.454255 0.946178 5.970459 26.458958 2.171202 8.212808 -4.860954 3.520323 0.000000 0.000000 0.000000 
-3193.311523 922.028442 1110.031982 1.518699 2.198743 -1.512393 -1.583343 15.901363 1.234118 -0.939697 -2.729181 -0.385766 -0.676585 2.427406 0.100491 -0.538831 -9.129043 2.225928 0.000000 0.000000 0.000000 -0.584144 -25.736307 3.663486 -3.375091 -16.367253 1.747832 11.407648 -67.115571 16.292581 0.000000 0.000000 0.000000 0.139013 -22.223868 3.196796 -0.221286 -16.118032 -0.414405 -14.403421 -66.382625 -5.189103 0.000000 0.000000 0.000000 -0.727964 4.083962 -0.261314 -0.957341 12.868751 -0.688303 -0.116755 -10.674498 -0.765538 0.000000 0.000000 0.000000 4.990715 -22.247734 0.927658 6.079200 26.018524 2.109724 8.247221 -4.729438 3.548271 0.000000 0.000000 0.000000 
-3189.361084 926.040527 1112.120972 1.386223 2.477505 -1.674123 -1.524773 16.114631 1.179744 -1.005691 -2.743265 -0.379363 -0.755654 2.447936 0.100570 -0.550571 -9.100255 2.263063 0.000000 0.000000 0.000000 -0.513016 -25.753656 3.585568 -3.327623 -16.488574 2.171116 11.424591 -67.168469 16.197643 0.000000 0.000000 0.000000 0.063637 -22.359505 3.259795 -0.252571 -16.317646 -0.661625 -14.451269 -66.203743 -5.346374 0.000000 0.000000 0.000000 -0.434522 3.348905 -0.562591 -0.796654 13.849761 -0.318687 0.089001 -9.759098 -0.615154 0.000000 0.000000 0.000000 4.988718 -22.049213 0.965088 6.141293 25.537415 1.969056 8.214369 -4.500299 3.549010 0.000000 0.000000 0.000000 
-3185.637207 929.762695 1114.258057 1.280056 2.740900 -1.853078 -1.452494 16.336087 1.156065 -1.063621 -2.748725 -0.378366 -0.826455 2.461773 0.102690 -0.565740 -9.045280 2.307110 0.000000 0.000000 0.000000 -0.426466 -25.755911 3.472240 -3.317564 -16.614185 2.546495 11.411333 -67.236274 16.113784 0.000000 0.000000 0.000000 -0.030433 -22.481648 3.343257 -0.278359 -16.499939 -0.897506 -14.494874 -66.093601 -5.530040 0.000000 0.000000 0.000000 -0.175920 2.535528 -0.816716 -0.675360 14.965392 0.039735 0.263537 -8.801029 -0.476085 0.000000 0.000000 0.000000 4.967285 -21.835149 1.035675 6.185461 25.018086 1.831300 8.160666 -4.238817 3.541096 0.000000 0.000000 0.000000 
-3182.156982 933.192566 1116.392944 1.174775 2.974690 -2.071114 -1.343320 16.562759 1.188888 -1.095599 -2.753162 -0.378661 -0.872146 2.473043 0.100689 -0.582417 -8.937466 2.346709 0.000000 0.000000 0.000000 -0.347906 -25.751520 3.354894 -3.282880 -16.744446 2.866306 11.404392 -67.314652 15.800100 0.000000 0.000000 0.000000 -0.161555 -22.609239 3.449709 -0.290347 -16.671263 -1.131840 -14.527300 -65.998664 -5.801164 0.000000 0.000000 0.000000 0.015828 1.610173 -0.974037 -0.628410 16.300881 0.335848 0.365996 -7.792308 -0.365332 0.000000 0.000000 0.000000 4.945604 -21.591845 1.129882 6.229292 24.461806 1.753345 8.114208 -3.981608 3.535830 0.000000 0.000000 0.000000 
-3178.927979 936.341492 1118.572998 1.080169 3.187989 -2.314358 -1.204324 16.799457 1.257011 -1.109365 -2.753039 -0.377857 -0.900731 2.481244 0.098440 -0.600871 -8.791880 2.385352 0.000000 0.000000 0.000000 -0.261036 -25.736127 3.207715 -3.260697 -16.879865 3.138574 11.380745 -67.411289 15.381403 0.000000 0.000000 0.000000 -0.322417 -22.733404 3.578290 -0.295071 -16.827947 -1.363110 -14.554032 -65.953451 -6.123926 0.000000 0.000000 0.000000 0.158803 0.585671 -1.064679 -0.633083 17.812028 0.589788 0.418874 -6.691978 -0.270100 0.000000 0.000000 0.000000 4.912298 -21.325903 1.251460 6.263286 23.862717 1.703936 8.059035 -3.702425 3.526869 0.000000 0.000000 0.000000 
-3175.817871 939.135315 1120.659058 1.016781 3.369431 -2.549135 -1.060541 17.027245 1.338008 -1.126596 -2.750963 -0.380416 -0.933096 2.487465 0.099554 -0.625222 -8.624633 2.440272 0.000000 0.000000 0.000000 -0.185605 -25.717795 3.071103 -3.254757 -17.016503 3.356569 11.345863 -67.478624 14.980401 0.000000 0.000000 0.000000 -0.467907 -22.845954 3.707544 -0.286865 -16.963829 -1.570565 -14.573488 -65.947493 -6.511063 0.000000 0.000000 0.000000 0.217079 -0.484470 -1.114088 -0.716477 19.423272 0.807537 0.390294 -5.621136 -0.211660 0.000000 0.000000 0.000000 4.874906 -21.025387 1.371113 6.295444 23.243728 1.668533 8.007773 -3.430927 3.519028 0.000000 0.000000 0.000000 
-3172.740967 941.533997 1122.557983 0.998745 3.512719 -2.756555 -0.927401 17.235783 1.425301 -1.163894 -2.757065 -0.391733 -0.985296 2.503557 0.107113 -0.658531 -8.447005 2.523330 0.000000 0.000000 0.000000 -0.132143 -25.710843 2.976700 -3.271117 -17.159083 3.504729 11.304328 -67.479846 14.679205 0.000000 0.000000 0.000000 -0.558932 -22.949144 3.819038 -0.258688 -17.076961 -1.737187 -14.585748 -65.983576 -6.984004 0.000000 0.000000 0.000000 0.143416 -1.582220 -1.129727 -0.922399 21.129338 0.971006 0.219491 -4.610298 -0.217157 0.000000 0.000000 0.000000 4.841645 -20.676809 1.466938 6.335675 22.607045 1.644158 7.972765 -3.193645 3.517266 0.000000 0.000000 0.000000 
-3169.750000 943.567200 1124.326050 1.018793 3.619620 -2.944567 -0.792980 17.441015 1.519832 -1.213374 -2.777200 -0.406303 -1.050567 2.532254 0.121201 -0.699354 -8.253763 2.628683 0.000000 0.000000 0.000000 -0.095028 -25.713589 2.908062 -3.310230 -17.309025 3.585248 11.253529 -67.432415 14.436877 0.000000 0.000000 0.000000 -0.611839 -23.047195 3.916294 -0.212177 -17.170334 -1.870422 -14.592668 -66.068147 -7.539564 0.000000 0.000000 0.000000 -0.053255 -2.722427 -1.102283 -1.241081 22.952278 1.058918 -0.100584 -3.593327 -0.283833 0.000000 0.000000 0.000000 4.810097 -20.279711 1.545416 6.381399 21.941202 1.635499 7.949014 -2.976952 3.519704 0.000000 0.000000 0.000000 
-3166.819092 945.190063 1125.953003 1.075569 3.689243 -3.098528 -0.669387 17.625932 1.591696 -1.268916 -2.794859 -0.417401 -1.122444 2.555864 0.137980 -0.743242 -8.062326 2.744088 0.000000 0.000000 0.000000 -0.066776 -25.688428 2.859589 -3.347348 -17.436128 3.635986 11.203012 -67.367734 14.207368 0.000000 0.000000 0.000000 -0.647892 -23.117951 4.007690 -0.157689 -17.234197 -1.983183 -14.590685 -66.156544 -8.137355 0.000000 0.000000 0.000000 -0.273725 -3.831728 -1.058453 -1.565063 24.717184 1.131435 -0.436453 -2.859753 -0.374248 0.000000 0.000000 0.000000 4.770671 -19.863594 1.616599 6.414008 21.307684 1.617488 7.917821 -2.759443 3.518026 0.000000 0.000000 0.000000 
-3163.923340 946.346313 1127.391968 1.178996 3.718751 -3.211158 -0.563830 17.768794 1.625877 -1.328752 -2.794168 -0.425318 -1.199011 2.563523 0.156425 -0.788331 -7.887176 2.866949 0.000000 0.000000 0.000000 -0.044297 -25.605706 2.829792 -3.367373 -17.516281 3.678514 11.158137 -67.309719 13.953869 0.000000 0.000000 0.000000 -0.682160 -23.149570 4.096238 -0.099270 -17.258544 -2.078450 -14.578700 -66.224442 -8.780467 0.000000 0.000000 0.000000 -0.456059 -4.881894 -1.010651 -1.834899 26.407403 1.255055 -0.685113 -2.733260 -0.468187 0.000000 0.000000 0.000000 4.708926 -19.449008 1.694408 6.418409 20.755536 1.569499 7.865685 -2.542838 3.505599 0.000000 0.000000 0.000000 
-3161.076416 947.053955 1128.649048 1.331923 3.707629 -3.286582 -0.472165 17.883044 1.632931 -1.396117 -2.790190 -0.433506 -1.283748 2.566052 0.178674 -0.836184 -7.721553 3.002342 0.000000 0.000000 0.000000 -0.030390 -25.480207 2.823902 -3.380521 -17.561819 3.696559 11.116236 -67.246587 13.693572 0.000000 0.000000 0.000000 -0.704982 -23.151835 4.176666 -0.032608 -17.247500 -2.150709 -14.558918 -66.289055 -9.485758 0.000000 0.000000 0.000000 -0.636259 -5.899929 -0.952187 -2.090167 28.096044 1.411785 -0.894882 -3.111511 -0.579845 0.000000 0.000000 0.000000 4.628307 -19.023653 1.773232 6.401613 20.261270 1.501838 7.799426 -2.336798 3.485442 0.000000 0.000000 0.000000 
-3158.292725 947.425110 1129.890015 1.492302 3.676135 -3.335067 -0.411981 17.985516 1.627776 -1.453727 -2.786486 -0.434073 -1.354953 2.566965 0.197206 -0.879246 -7.569719 3.123081 0.000000 0.000000 0.000000 -0.022280 -25.340061 2.821834 -3.384339 -17.588642 3.712183 11.080233 -67.163609 13.464269 0.000000 0.000000 0.000000 -0.717897 -23.114610 4.248677 0.030167 -17.217476 -2.214549 -14.529044 -66.331886 -10.116769 0.000000 0.000000 0.000000 -0.774318 -6.814692 -0.909510 -2.280834 29.398743 1.582419 -1.034225 -3.569256 -0.668106 0.000000 0.000000 0.000000 4.559519 -18.606153 1.846439 6.369622 19.809993 1.432400 7.718445 -2.096833 3.459628 0.000000 0.000000 0.000000 
-3155.590576 947.524597 1131.220947 1.633455 3.637800 -3.366032 -0.399255 18.087795 1.627013 -1.488644 -2.788832 -0.426950 -1.395455 2.570242 0.207736 -0.911284 -7.433411 3.207278 0.000000 0.000000 0.000000 -0.017408 -25.198648 2.809151 -3.375861 -17.606601 3.740317 11.052319 -67.051360 13.288227 0.000000 0.000000 0.000000 -0.721415 -23.028235 4.311696 0.082906 -17.179177 -2.272347 -14.485361 -66.338110 -10.579579 0.000000 0.000000 0.000000 -0.824684 -7.577741 -0.902954 -2.362279 30.058632 1.781218 -1.054009 -3.844243 -0.695372 0.000000 0.000000 0.000000 4.518715 -18.221131 1.920296 6.322794 19.411596 1.364339 7.619913 -1.785554 3.428535 0.000000 0.000000 0.000000 
-3152.963379 947.309692 1132.579956 1.770316 3.586385 -3.378167 -0.427679 18.179859 1.628067 -1.505865 -2.794170 -0.415446 -1.411988 2.575696 0.210475 -0.936834 -7.311761 3.270795 0.000000 0.000000 0.000000 -0.020330 -25.045790 2.797310 -3.356373 -17.610466 3.771174 11.032151 -66.915472 13.151957 0.000000 0.000000 0.000000 -0.714445 -22.898104 4.365281 0.129213 -17.126536 -2.317462 -14.430408 -66.316693 -10.926306 0.000000 0.000000 0.000000 -0.800196 -8.220951 -0.922827 -2.357631 30.227462 2.021495 -0.964427 -4.093286 -0.676392 0.000000 0.000000 0.000000 4.492630 -17.864129 2.000845 6.259348 19.073338 1.290576 7.504617 -1.423146 3.391580 0.000000 0.000000 0.000000 
